<svg width="84" height="21" viewBox="0 0 84 21" fill="none" xmlns="http://www.w3.org/2000/svg">
<rect width="84" height="21" rx="10.5" fill="white"/>
<path d="M15.5664 13.5293V15.0059H11.2598V13.5293H15.5664ZM11.9102 6.47461V15.0059H10V6.47461H11.9102Z" fill="#1781E3"/>
<path d="M18.3379 8.66602V15.0059H16.5039V8.66602H18.3379ZM16.3926 7.02539C16.3926 6.75977 16.4863 6.54297 16.6738 6.375C16.8613 6.20312 17.1074 6.11719 17.4121 6.11719C17.7168 6.11719 17.9629 6.20312 18.1504 6.375C18.3418 6.54297 18.4375 6.75977 18.4375 7.02539C18.4375 7.28711 18.3418 7.50391 18.1504 7.67578C17.9629 7.84375 17.7168 7.92773 17.4121 7.92773C17.1074 7.92773 16.8613 7.84375 16.6738 7.67578C16.4863 7.50391 16.3926 7.28711 16.3926 7.02539Z" fill="#1781E3"/>
<path d="M21.4492 10.0195V15.0059H19.6152V8.66602H21.3379L21.4492 10.0195ZM21.209 11.6133L20.752 11.625C20.752 11.1484 20.8105 10.7207 20.9277 10.3418C21.0449 9.96289 21.2109 9.64062 21.4258 9.375C21.6445 9.10547 21.9043 8.90039 22.2051 8.75977C22.5098 8.61914 22.8457 8.54883 23.2129 8.54883C23.5098 8.54883 23.7812 8.5918 24.0273 8.67773C24.2734 8.76367 24.4844 8.90234 24.6602 9.09375C24.8398 9.28125 24.9766 9.53125 25.0703 9.84375C25.1641 10.1523 25.2109 10.5332 25.2109 10.9863V15.0059H23.3711V10.9805C23.3711 10.7148 23.334 10.5098 23.2598 10.3652C23.1855 10.2207 23.0762 10.1191 22.9316 10.0605C22.791 10.002 22.6191 9.97266 22.416 9.97266C22.2012 9.97266 22.0176 10.0156 21.8652 10.1016C21.7129 10.1836 21.5879 10.2988 21.4902 10.4473C21.3926 10.5957 21.3203 10.7695 21.2734 10.9688C21.2305 11.168 21.209 11.3828 21.209 11.6133Z" fill="#1781E3"/>
<path d="M28.2461 6V15.0059H26.4121V6H28.2461ZM32.2715 8.66602L29.5117 11.8535L28.0527 13.3184L27.3203 12.082L28.5039 10.5527L30.0684 8.66602H32.2715ZM30.3379 15.0059L28.5508 12.0938L29.8633 11.0684L32.4355 15.0059H30.3379Z" fill="#1781E3"/>
<path d="M33.9062 6.47461H35.4883L37.5391 12.5742L39.584 6.47461H41.166L38.1777 15.0059H36.8945L33.9062 6.47461ZM32.9922 6.47461H34.6035L34.9023 12.7969V15.0059H32.9922V6.47461ZM40.4688 6.47461H42.0859V15.0059H40.1699V12.7969L40.4688 6.47461Z" fill="#1781E3"/>
<path d="M46.3984 15.123C45.8945 15.123 45.4434 15.043 45.0449 14.8828C44.6465 14.7227 44.3086 14.502 44.0312 14.2207C43.7578 13.9355 43.5488 13.6074 43.4043 13.2363C43.2598 12.8652 43.1875 12.4688 43.1875 12.0469V11.8242C43.1875 11.3516 43.2539 10.916 43.3867 10.5176C43.5195 10.1191 43.7129 9.77344 43.9668 9.48047C44.2246 9.18359 44.541 8.95508 44.916 8.79492C45.291 8.63086 45.7188 8.54883 46.1992 8.54883C46.6484 8.54883 47.0488 8.62305 47.4004 8.77148C47.752 8.91602 48.0488 9.125 48.291 9.39844C48.5332 9.66797 48.7168 9.99414 48.8418 10.377C48.9707 10.7559 49.0352 11.1816 49.0352 11.6543V12.4043H43.9258V11.2266H47.2422V11.0859C47.2422 10.8633 47.2012 10.668 47.1191 10.5C47.041 10.332 46.9238 10.2031 46.7676 10.1133C46.6152 10.0195 46.4219 9.97266 46.1875 9.97266C45.9648 9.97266 45.7793 10.0195 45.6309 10.1133C45.4824 10.207 45.3633 10.3398 45.2734 10.5117C45.1875 10.6797 45.125 10.877 45.0859 11.1035C45.0469 11.3262 45.0273 11.5664 45.0273 11.8242V12.0469C45.0273 12.293 45.0605 12.5176 45.127 12.7207C45.1934 12.9238 45.291 13.0977 45.4199 13.2422C45.5488 13.3867 45.7051 13.5 45.8887 13.582C46.0723 13.6641 46.2812 13.7051 46.5156 13.7051C46.8047 13.7051 47.0801 13.6504 47.3418 13.541C47.6035 13.4277 47.8301 13.252 48.0215 13.0137L48.877 13.9922C48.748 14.1797 48.5664 14.3613 48.332 14.5371C48.1016 14.709 47.8242 14.8496 47.5 14.959C47.1758 15.0684 46.8086 15.123 46.3984 15.123Z" fill="#1781E3"/>
<path d="M54.7305 6.47461V15.0059H52.8262V6.47461H54.7305ZM57.3262 6.47461V7.95703H50.2832V6.47461H57.3262Z" fill="#282828"/>
<path d="M59.6113 10.1426V15.0059H57.7832V8.66602H59.5L59.6113 10.1426ZM61.5039 8.61914L61.4746 10.3242C61.3965 10.3125 61.2949 10.3027 61.1699 10.2949C61.0449 10.2832 60.9375 10.2773 60.8477 10.2773C60.6133 10.2773 60.4102 10.3066 60.2383 10.3652C60.0703 10.4199 59.9297 10.502 59.8164 10.6113C59.707 10.7207 59.625 10.8574 59.5703 11.0215C59.5156 11.1816 59.4883 11.3672 59.4883 11.5781L59.1426 11.4082C59.1426 10.9902 59.1836 10.6074 59.2656 10.2598C59.3477 9.91211 59.4668 9.61133 59.623 9.35742C59.7793 9.09961 59.9707 8.90039 60.1973 8.75977C60.4238 8.61914 60.6816 8.54883 60.9707 8.54883C61.0645 8.54883 61.1602 8.55469 61.2578 8.56641C61.3555 8.57812 61.4375 8.5957 61.5039 8.61914Z" fill="#282828"/>
<path d="M65.125 15.123C64.6211 15.123 64.1699 15.043 63.7715 14.8828C63.373 14.7227 63.0352 14.502 62.7578 14.2207C62.4844 13.9355 62.2754 13.6074 62.1309 13.2363C61.9863 12.8652 61.9141 12.4688 61.9141 12.0469V11.8242C61.9141 11.3516 61.9805 10.916 62.1133 10.5176C62.2461 10.1191 62.4395 9.77344 62.6934 9.48047C62.9512 9.18359 63.2676 8.95508 63.6426 8.79492C64.0176 8.63086 64.4453 8.54883 64.9258 8.54883C65.375 8.54883 65.7754 8.62305 66.127 8.77148C66.4785 8.91602 66.7754 9.125 67.0176 9.39844C67.2598 9.66797 67.4434 9.99414 67.5684 10.377C67.6973 10.7559 67.7617 11.1816 67.7617 11.6543V12.4043H62.6523V11.2266H65.9688V11.0859C65.9688 10.8633 65.9277 10.668 65.8457 10.5C65.7676 10.332 65.6504 10.2031 65.4941 10.1133C65.3418 10.0195 65.1484 9.97266 64.9141 9.97266C64.6914 9.97266 64.5059 10.0195 64.3574 10.1133C64.209 10.207 64.0898 10.3398 64 10.5117C63.9141 10.6797 63.8516 10.877 63.8125 11.1035C63.7734 11.3262 63.7539 11.5664 63.7539 11.8242V12.0469C63.7539 12.293 63.7871 12.5176 63.8535 12.7207C63.9199 12.9238 64.0176 13.0977 64.1465 13.2422C64.2754 13.3867 64.4316 13.5 64.6152 13.582C64.7988 13.6641 65.0078 13.7051 65.2422 13.7051C65.5312 13.7051 65.8066 13.6504 66.0684 13.541C66.3301 13.4277 66.5566 13.252 66.748 13.0137L67.6035 13.9922C67.4746 14.1797 67.293 14.3613 67.0586 14.5371C66.8281 14.709 66.5508 14.8496 66.2266 14.959C65.9023 15.0684 65.5352 15.123 65.125 15.123Z" fill="#282828"/>
<path d="M71.6406 15.123C71.1367 15.123 70.6855 15.043 70.2871 14.8828C69.8887 14.7227 69.5508 14.502 69.2734 14.2207C69 13.9355 68.791 13.6074 68.6465 13.2363C68.502 12.8652 68.4297 12.4688 68.4297 12.0469V11.8242C68.4297 11.3516 68.4961 10.916 68.6289 10.5176C68.7617 10.1191 68.9551 9.77344 69.209 9.48047C69.4668 9.18359 69.7832 8.95508 70.1582 8.79492C70.5332 8.63086 70.9609 8.54883 71.4414 8.54883C71.8906 8.54883 72.291 8.62305 72.6426 8.77148C72.9941 8.91602 73.291 9.125 73.5332 9.39844C73.7754 9.66797 73.959 9.99414 74.084 10.377C74.2129 10.7559 74.2773 11.1816 74.2773 11.6543V12.4043H69.168V11.2266H72.4844V11.0859C72.4844 10.8633 72.4434 10.668 72.3613 10.5C72.2832 10.332 72.166 10.2031 72.0098 10.1133C71.8574 10.0195 71.6641 9.97266 71.4297 9.97266C71.207 9.97266 71.0215 10.0195 70.873 10.1133C70.7246 10.207 70.6055 10.3398 70.5156 10.5117C70.4297 10.6797 70.3672 10.877 70.3281 11.1035C70.2891 11.3262 70.2695 11.5664 70.2695 11.8242V12.0469C70.2695 12.293 70.3027 12.5176 70.3691 12.7207C70.4355 12.9238 70.5332 13.0977 70.6621 13.2422C70.791 13.3867 70.9473 13.5 71.1309 13.582C71.3145 13.6641 71.5234 13.7051 71.7578 13.7051C72.0469 13.7051 72.3223 13.6504 72.584 13.541C72.8457 13.4277 73.0723 13.252 73.2637 13.0137L74.1191 13.9922C73.9902 14.1797 73.8086 14.3613 73.5742 14.5371C73.3438 14.709 73.0664 14.8496 72.7422 14.959C72.418 15.0684 72.0508 15.123 71.6406 15.123Z" fill="#282828"/>
</svg>
